<svg xmlns="http://www.w3.org/2000/svg" viewBox="0 0 17 16" fill="none"><mask id="mask0_1906_20498" style="mask-type:alpha" maskUnits="userSpaceOnUse" x="0" y="0" width="17" height="16"><rect x="0.875" width="16" height="16" fill="#D9D9D9"/></mask><g mask="url(#mask0_1906_20498)"><path d="M14.6763 14.5126L12.5429 12.3793V14.0998H11.543V10.6665H14.9763V11.6665H13.2391L15.3724 13.7998L14.6763 14.5126ZM8.87629 14.3331C8.00017 14.3331 7.17685 14.1669 6.4063 13.8345C5.63575 13.502 4.96547 13.0509 4.39547 12.481C3.82547 11.9111 3.37422 11.2409 3.04172 10.4705C2.70922 9.70008 2.54297 8.87689 2.54297 8.00094C2.54297 7.12498 2.70919 6.30163 3.04164 5.53087C3.37408 4.7601 3.82525 4.08965 4.39514 3.5195C4.96504 2.94935 5.6352 2.49798 6.40562 2.16539C7.17603 1.8328 7.99921 1.6665 8.87517 1.6665C9.75112 1.6665 10.5745 1.83275 11.3452 2.16525C12.116 2.49775 12.7865 2.949 13.3566 3.519C13.9268 4.089 14.3781 4.75928 14.7107 5.52984C15.0433 6.30037 15.2096 7.12369 15.2096 7.9998C15.2096 8.20066 15.2001 8.40152 15.1811 8.60237C15.1621 8.80322 15.1335 9.00407 15.0955 9.20492H14.0686C14.1156 9.00407 14.1509 8.80322 14.1744 8.60237C14.1979 8.40152 14.2096 8.20066 14.2096 7.9998C14.2096 7.75764 14.1936 7.51547 14.1615 7.2733C14.1295 7.03114 14.0793 6.79039 14.0109 6.55107H11.5327C11.5746 6.79039 11.6049 7.03114 11.6237 7.2733C11.6425 7.51547 11.6519 7.75764 11.6519 7.9998C11.6519 8.20066 11.6452 8.40152 11.6317 8.60237C11.6183 8.80322 11.5981 9.00407 11.5711 9.20492H10.5712C10.5981 9.00407 10.6183 8.80322 10.6317 8.60237C10.6452 8.40152 10.6519 8.20066 10.6519 7.9998C10.6519 7.75764 10.6425 7.51547 10.6237 7.2733C10.6049 7.03114 10.5746 6.79039 10.5327 6.55107H7.21987C7.17799 6.79039 7.14765 7.03132 7.12884 7.27384C7.11004 7.51636 7.10064 7.75888 7.10064 8.0014C7.10064 8.24393 7.11004 8.48592 7.12884 8.72737C7.14765 8.96883 7.17799 9.20922 7.21987 9.44854H9.67117V10.4485H7.44935C7.59704 10.973 7.78781 11.4761 8.02167 11.9579C8.25551 12.4397 8.54039 12.8934 8.87629 13.319C9.07714 13.319 9.278 13.3073 9.47885 13.2838C9.6797 13.2603 9.88055 13.2374 10.0814 13.2152V14.2293C9.88055 14.2515 9.6797 14.2744 9.47885 14.2979C9.278 14.3214 9.07714 14.3331 8.87629 14.3331ZM3.74167 9.44854H6.21988C6.17801 9.20922 6.14767 8.96829 6.12887 8.72577C6.11007 8.48325 6.10067 8.24073 6.10067 7.9982C6.10067 7.75568 6.11007 7.51369 6.12887 7.27224C6.14767 7.03078 6.17801 6.79039 6.21988 6.55107H3.74167C3.67329 6.79039 3.62308 7.03132 3.59104 7.27384C3.55898 7.51636 3.54295 7.75888 3.54295 8.0014C3.54295 8.24393 3.55898 8.48592 3.59104 8.72737C3.62308 8.96883 3.67329 9.20922 3.74167 9.44854ZM4.16089 5.5511H6.41942C6.53426 5.06734 6.68699 4.59938 6.87758 4.14724C7.06819 3.6951 7.30409 3.26305 7.58529 2.85107C6.83742 3.01688 6.16669 3.33569 5.57309 3.80749C4.97949 4.27929 4.50875 4.86049 4.16089 5.5511ZM7.58529 13.1485C7.31691 12.7323 7.08635 12.2981 6.89362 11.846C6.70087 11.3938 6.54382 10.928 6.42245 10.4485H4.16089C4.50875 11.1348 4.98055 11.7139 5.57629 12.1857C6.17202 12.6575 6.84169 12.9784 7.58529 13.1485ZM7.44935 5.5511H10.3032C10.1613 5.02632 9.97025 4.52539 9.72995 4.04834C9.48966 3.57128 9.20511 3.11536 8.87629 2.68057C8.54466 3.10622 8.2594 3.55985 8.0205 4.04147C7.78161 4.5231 7.59123 5.02632 7.44935 5.5511ZM11.3301 5.5511H13.5917C13.2438 4.86049 12.7731 4.27822 12.1795 3.80429C11.5859 3.33035 10.9152 3.01261 10.1673 2.85107C10.4357 3.26731 10.663 3.70258 10.8493 4.15685C11.0357 4.61113 11.1959 5.07588 11.3301 5.5511Z" fill="white"/></g></svg>