<svg xmlns="http://www.w3.org/2000/svg" viewBox="0 0 17 16" fill="none"><mask id="mask0_1906_20564" style="mask-type:alpha" maskUnits="userSpaceOnUse" x="0" y="0" width="17" height="16"><rect x="0.875" width="16" height="16" fill="#D9D9D9"/></mask><g mask="url(#mask0_1906_20564)"><path d="M8.74347 13.337C8.37681 13.337 8.06292 13.2058 7.80181 12.9434C7.5407 12.681 7.41014 12.3665 7.41014 11.9998C7.41014 11.6332 7.5407 11.3193 7.80181 11.0582C8.06292 10.797 8.37681 10.6665 8.74347 10.6665L9.14347 10.2832C9.23236 10.1943 9.33514 10.1248 9.45181 10.0748C9.56847 10.0248 9.68792 9.99982 9.81014 9.99982C10.0657 9.99982 10.2851 10.0943 10.4685 10.2832C10.6518 10.472 10.7435 10.6943 10.7435 10.9498V11.2332C10.7435 11.4554 10.8157 11.6387 10.9601 11.7832C11.1046 11.9276 11.2879 11.9998 11.5101 11.9998C11.6768 11.9998 11.8268 11.9498 11.9601 11.8498C12.0935 11.7498 12.1879 11.622 12.2435 11.4665L12.4435 10.9165C12.5435 10.6498 12.7024 10.4304 12.9204 10.2582C13.1383 10.0859 13.3918 9.99982 13.6807 9.99982C13.8029 9.68871 13.9001 9.36649 13.9723 9.03315C14.0445 8.69982 14.0807 8.35538 14.0807 7.99982C14.0807 7.01093 13.8356 6.11029 13.3454 5.2979C12.8552 4.4855 12.2101 3.84597 11.4101 3.3793V3.99982C11.4101 4.36649 11.2796 4.68038 11.0185 4.94149C10.7574 5.2026 10.4435 5.33315 10.0768 5.33315H9.41014V6.66649C9.41014 6.85538 9.34625 7.01371 9.21847 7.14149C9.0907 7.26927 8.93236 7.33315 8.74347 7.33315H8.07681V8.46649C8.07681 8.71093 7.99347 8.91649 7.82681 9.08315C7.66014 9.24982 7.45458 9.33315 7.21014 9.33315C7.05458 9.33315 6.91292 9.29982 6.78514 9.23315C6.65736 9.16649 6.55458 9.07204 6.47681 8.94982L5.41014 7.33315H4.74347V7.99982C4.74347 8.34427 4.6288 8.63871 4.39946 8.88315C4.17011 9.1276 3.89461 9.27204 3.57296 9.31649C3.86185 10.472 4.48471 11.431 5.44156 12.1934C6.39839 12.9558 7.49903 13.337 8.74347 13.337ZM10.0768 9.33315C9.88792 9.33315 9.72958 9.26927 9.60181 9.14149C9.47403 9.01371 9.41014 8.85538 9.41014 8.66649C9.41014 8.4776 9.47403 8.31927 9.60181 8.19149C9.72958 8.06371 9.88792 7.99982 10.0768 7.99982H10.7435C10.9324 7.99982 11.0907 8.06371 11.2185 8.19149C11.3463 8.31927 11.4101 8.4776 11.4101 8.66649C11.4101 8.85538 11.3463 9.01371 11.2185 9.14149C11.0907 9.26927 10.9324 9.33315 10.7435 9.33315H10.0768ZM11.6268 7.33315C11.4046 7.33315 11.2296 7.24704 11.1018 7.07482C10.974 6.9026 10.9435 6.71093 11.0101 6.49982L11.2601 5.76649C11.3046 5.63315 11.3824 5.5276 11.4935 5.44982C11.6046 5.37204 11.7268 5.33315 11.8601 5.33315C12.0824 5.33315 12.2574 5.41927 12.3851 5.59149C12.5129 5.76371 12.5435 5.95538 12.4768 6.16649L12.2268 6.89982C12.1824 7.03315 12.1046 7.13871 11.9935 7.21649C11.8824 7.29427 11.7601 7.33315 11.6268 7.33315ZM8.74459 14.3331C7.86863 14.3331 7.04528 14.1669 6.27452 13.8345C5.50376 13.502 4.8333 13.0509 4.26316 12.481C3.693 11.9111 3.24163 11.2409 2.90904 10.4705C2.57645 9.70008 2.41016 8.87689 2.41016 8.00094C2.41016 7.12498 2.57638 6.30163 2.90882 5.53087C3.24127 4.7601 3.69243 4.08965 4.26232 3.5195C4.83222 2.94935 5.50238 2.49798 6.27281 2.16539C7.04322 1.8328 7.8664 1.6665 8.74236 1.6665C9.61831 1.6665 10.4417 1.83273 11.2124 2.16517C11.9832 2.49762 12.6536 2.94878 13.2238 3.51867C13.7939 4.08857 14.2453 4.75873 14.5779 5.52915C14.9105 6.29957 15.0768 7.12275 15.0768 7.9987C15.0768 8.87466 14.9106 9.69802 14.5781 10.4688C14.2457 11.2395 13.7945 11.91 13.2246 12.4801C12.6547 13.0503 11.9846 13.5017 11.2141 13.8343C10.4437 14.1668 9.62054 14.3331 8.74459 14.3331Z" fill="white"/></g></svg>