<svg style="cursor:pointer;" class="js-box-accessibility" xmlns="http://www.w3.org/2000/svg" viewBox="0 0 16 16" fill="none"><mask id="mask0_2493_1589" style="mask-type:alpha" maskUnits="userSpaceOnUse" x="0" y="0" width="16" height="16"><rect width="16" height="16" fill="#D9D9D9"/></mask><g mask="url(#mask0_2493_1589)"><path d="M7.99219 5.58938C7.32707 5.58938 6.76034 5.82357 6.29195 6.29195C5.82357 6.76034 5.58938 7.32707 5.58938 7.99219C5.58938 8.65731 5.82357 9.22405 6.29195 9.6924C6.76034 10.1608 7.32707 10.395 7.99219 10.395C8.65731 10.395 9.22405 10.1608 9.6924 9.6924C10.1608 9.22405 10.395 8.65731 10.395 7.99219C10.395 7.32707 10.1608 6.76034 9.6924 6.29195C9.22405 5.82357 8.65731 5.58938 7.99219 5.58938ZM7.99219 9.79079C7.49572 9.79079 7.06945 9.61746 6.7135 9.27087C6.3669 8.91493 6.19359 8.48866 6.19359 7.99219C6.19359 7.49572 6.3669 7.07419 6.7135 6.72755C7.06945 6.37158 7.49572 6.19359 7.99219 6.19359C8.48866 6.19359 8.91019 6.37158 9.25684 6.72755C9.61279 7.07419 9.79079 7.49572 9.79079 7.99219C9.79079 8.48866 9.61279 8.91493 9.25684 9.27087C8.91019 9.61746 8.48866 9.79079 7.99219 9.79079ZM13.388 6.7978H12.6432C12.5777 6.57298 12.5027 6.35753 12.4184 6.15144C12.3341 5.94535 12.2357 5.74863 12.1233 5.56127L12.6573 5.02732C12.7697 4.90554 12.8259 4.76502 12.8259 4.60577C12.8259 4.43715 12.7697 4.29664 12.6573 4.18423L11.8002 3.32708C11.6878 3.21467 11.5472 3.15846 11.3786 3.15846C11.2194 3.15846 11.0788 3.21467 10.9571 3.32708L10.4231 3.86104C10.2358 3.74863 10.0391 3.65027 9.83293 3.56596C9.62687 3.48165 9.4114 3.41139 9.18658 3.35518V2.5964C9.18658 2.42778 9.12567 2.28727 9.0039 2.17486C8.89149 2.05308 8.75563 1.99219 8.5964 1.99219H7.38798C7.22875 1.99219 7.08822 2.05308 6.96645 2.17486C6.85404 2.28727 6.7978 2.42778 6.7978 2.5964V3.34113C6.57298 3.40671 6.35753 3.48165 6.15144 3.56596C5.94535 3.65027 5.74863 3.74863 5.56127 3.86104L5.02732 3.32708C4.90554 3.21467 4.76034 3.15846 4.59172 3.15846C4.43247 3.15846 4.29195 3.21467 4.17017 3.32708L3.32708 4.18423C3.21467 4.29664 3.15846 4.43715 3.15846 4.60577C3.15846 4.76502 3.21467 4.90554 3.32708 5.02732L3.86104 5.56127C3.74863 5.74863 3.64558 5.94535 3.55191 6.15144C3.46759 6.35753 3.39734 6.57298 3.34113 6.7978H2.5964C2.42778 6.7978 2.28258 6.85872 2.16081 6.98048C2.04839 7.09289 1.99219 7.22875 1.99219 7.38798V8.5964C1.99219 8.75563 2.04839 8.89616 2.16081 9.01793C2.28258 9.13034 2.42778 9.18658 2.5964 9.18658H3.34113C3.40671 9.4114 3.48165 9.62687 3.56596 9.83293C3.65027 10.0391 3.74863 10.2358 3.86104 10.4231L3.32708 10.9571C3.21467 11.0788 3.15846 11.224 3.15846 11.3927C3.15846 11.5519 3.21467 11.6924 3.32708 11.8142L4.18423 12.6573C4.29664 12.7697 4.43247 12.8259 4.59172 12.8259C4.76034 12.8259 4.90554 12.7697 5.02732 12.6573L5.56127 12.1233C5.74863 12.2357 5.94535 12.3388 6.15144 12.4324C6.35753 12.5168 6.57298 12.5871 6.7978 12.6432V13.388C6.7978 13.5566 6.85404 13.6971 6.96645 13.8095C7.08822 13.9313 7.22875 13.9922 7.38798 13.9922H8.5964C8.75563 13.9922 8.89149 13.9313 9.0039 13.8095C9.12567 13.6971 9.18658 13.5566 9.18658 13.388V12.6432C9.4114 12.5777 9.62687 12.5027 9.83293 12.4184C10.0391 12.3341 10.2358 12.2357 10.4231 12.1233L10.9571 12.6573C11.0788 12.7697 11.2194 12.8259 11.3786 12.8259C11.5472 12.8259 11.6924 12.7697 11.8142 12.6573L12.6573 11.8142C12.7791 11.6924 12.8399 11.5519 12.8399 11.3927C12.8399 11.224 12.7791 11.0788 12.6573 10.9571L12.1233 10.4231C12.2357 10.2358 12.3341 10.0391 12.4184 9.83293C12.5121 9.62687 12.5871 9.4114 12.6432 9.18658H13.388C13.5566 9.18658 13.6971 9.13034 13.8095 9.01793C13.9313 8.89616 13.9922 8.75563 13.9922 8.5964V7.38798C13.9922 7.22875 13.9313 7.09289 13.8095 6.98048C13.6971 6.85872 13.5566 6.7978 13.388 6.7978ZM13.388 8.5964H12.1514C12.1327 8.69946 12.1093 8.80252 12.0812 8.90552C12.0625 8.99922 12.039 9.09287 12.0109 9.18658C11.9454 9.43011 11.8564 9.66434 11.7439 9.88917C11.6315 10.1046 11.5004 10.3107 11.3505 10.5074L12.2357 11.3786L11.3786 12.2357L10.5074 11.3505C10.3107 11.5004 10.0999 11.6315 9.87508 11.7439C9.65961 11.8564 9.43011 11.9501 9.18658 12.025C9.17723 12.025 9.16781 12.025 9.15846 12.025C9.15846 12.025 9.15378 12.025 9.14443 12.025C9.14443 12.025 9.13975 12.0297 9.13034 12.039C9.12099 12.039 9.11631 12.039 9.11631 12.039C9.10696 12.039 9.09287 12.0437 9.07417 12.0531C9.06481 12.0531 9.0554 12.0531 9.04605 12.0531C9.04605 12.0531 9.04137 12.0577 9.03202 12.0672C9.03202 12.0672 9.02734 12.0672 9.01793 12.0672C9.01793 12.0672 9.01325 12.0672 9.0039 12.0672C8.99455 12.0672 8.98514 12.0672 8.97578 12.0672C8.97578 12.0765 8.97111 12.0812 8.96175 12.0812C8.96175 12.0812 8.95708 12.0812 8.94772 12.0812C8.94772 12.0812 8.94299 12.0812 8.93364 12.0812C8.92428 12.0812 8.91493 12.0859 8.90552 12.0953C8.90552 12.0953 8.90084 12.0953 8.89149 12.0953C8.89149 12.0953 8.88681 12.0953 8.87746 12.0953C8.86805 12.0953 8.85869 12.0953 8.84934 12.0953C8.84934 12.0953 8.84467 12.0999 8.83525 12.1093C8.83525 12.1093 8.83058 12.1093 8.82122 12.1093C8.82122 12.1093 8.81655 12.1093 8.80719 12.1093C8.79784 12.1093 8.78843 12.1093 8.77908 12.1093C8.77908 12.1093 8.7744 12.114 8.76505 12.1233C8.75563 12.1233 8.74628 12.1233 8.73693 12.1233C8.72758 12.1233 8.71816 12.1233 8.70881 12.1233C8.69946 12.1233 8.69011 12.128 8.68069 12.1374C8.68069 12.1374 8.67602 12.1374 8.66666 12.1374C8.65731 12.1374 8.64322 12.1374 8.62452 12.1374C8.61516 12.1374 8.60575 12.1421 8.5964 12.1514V13.388H7.38798V12.1514C7.37863 12.1421 7.36454 12.1374 7.34583 12.1374C7.33642 12.1374 7.32707 12.1374 7.31772 12.1374C7.31772 12.1374 7.31304 12.1374 7.30369 12.1374C7.29427 12.128 7.28492 12.1233 7.27557 12.1233C7.26622 12.1233 7.2568 12.1233 7.24745 12.1233C7.24745 12.1233 7.24277 12.1233 7.23342 12.1233C7.23342 12.1233 7.22875 12.1233 7.21933 12.1233C7.20998 12.114 7.20063 12.1093 7.19128 12.1093C7.19128 12.1093 7.18654 12.1093 7.17719 12.1093C7.16783 12.1093 7.15848 12.1093 7.14913 12.1093C7.13972 12.0999 7.13036 12.0953 7.12101 12.0953C7.12101 12.0953 7.11633 12.0953 7.10692 12.0953C7.09757 12.0953 7.08822 12.0953 7.07886 12.0953C7.06945 12.0859 7.0601 12.0812 7.05075 12.0812C7.04139 12.0812 7.03666 12.0812 7.03666 12.0812C7.0273 12.0812 7.01795 12.0812 7.0086 12.0812C7.0086 12.0812 7.0086 12.0765 7.0086 12.0672C6.99925 12.0672 6.98983 12.0672 6.98048 12.0672C6.97113 12.0672 6.96645 12.0672 6.96645 12.0672C6.95704 12.0672 6.94769 12.0672 6.93833 12.0672C6.93833 12.0577 6.93833 12.0531 6.93833 12.0531C6.91957 12.0531 6.90554 12.0531 6.89619 12.0531C6.88677 12.0437 6.87742 12.039 6.86807 12.039C6.86807 12.039 6.86339 12.039 6.85404 12.039C6.84463 12.0297 6.83995 12.025 6.83995 12.025C6.8306 12.025 6.82124 12.025 6.81183 12.025C6.81183 12.025 6.80716 12.025 6.7978 12.025C6.55425 11.9501 6.32006 11.8564 6.09524 11.7439C5.87978 11.6315 5.67369 11.5004 5.47697 11.3505L4.60577 12.2357L3.74863 11.3786L4.63388 10.5074C4.48399 10.3107 4.35284 10.1046 4.24043 9.88917C4.12802 9.66434 4.03903 9.43011 3.97346 9.18658C3.94535 9.09287 3.91724 8.99922 3.88914 8.90552C3.87041 8.80252 3.85167 8.69946 3.83294 8.5964H2.5964V7.38798H3.83294C3.85167 7.28492 3.87041 7.18654 3.88914 7.09289C3.91724 6.98983 3.94535 6.89151 3.97346 6.7978C4.03903 6.55425 4.12802 6.32474 4.24043 6.10929C4.35284 5.88446 4.48399 5.67369 4.63388 5.47697L3.74863 4.60577L4.60577 3.74863L5.47697 4.63388C5.67369 4.48399 5.87978 4.35284 6.09524 4.24043C6.32006 4.12802 6.55425 4.03434 6.7978 3.9594C6.80716 3.9594 6.81183 3.9594 6.81183 3.9594C6.82124 3.9594 6.8306 3.9594 6.83995 3.9594C6.83995 3.9594 6.84463 3.9594 6.85404 3.9594C6.86339 3.95003 6.86807 3.94535 6.86807 3.94535C6.87742 3.94535 6.88677 3.94535 6.89619 3.94535C6.91489 3.93598 6.92898 3.9313 6.93833 3.9313C6.94769 3.92193 6.95704 3.91724 6.96645 3.91724C6.96645 3.91724 6.97113 3.91724 6.98048 3.91724C6.98983 3.91724 6.99925 3.91724 7.0086 3.91724C7.0086 3.90788 7.0086 3.9032 7.0086 3.9032C7.01795 3.9032 7.0273 3.9032 7.03666 3.9032C7.03666 3.9032 7.04139 3.9032 7.05075 3.9032C7.0601 3.9032 7.06945 3.89851 7.07886 3.88914C7.08822 3.88914 7.09757 3.88914 7.10692 3.88914C7.11633 3.88914 7.12101 3.88914 7.12101 3.88914C7.13036 3.88914 7.13972 3.88446 7.14913 3.87509C7.15848 3.87509 7.16783 3.87509 7.17719 3.87509C7.18654 3.87509 7.19128 3.87509 7.19128 3.87509C7.20063 3.87509 7.20998 3.87041 7.21933 3.86104C7.22875 3.86104 7.23342 3.86104 7.23342 3.86104C7.24277 3.86104 7.24745 3.86104 7.24745 3.86104C7.2568 3.86104 7.26622 3.86104 7.27557 3.86104C7.28492 3.86104 7.29427 3.85635 7.30369 3.84699C7.31304 3.84699 7.31772 3.84699 7.31772 3.84699C7.32707 3.84699 7.33642 3.84699 7.34583 3.84699C7.36454 3.84699 7.37863 3.8423 7.38798 3.83294V2.5964H8.5964V3.83294C8.60575 3.8423 8.61516 3.84699 8.62452 3.84699C8.64322 3.84699 8.65731 3.84699 8.66666 3.84699C8.67602 3.84699 8.68069 3.84699 8.68069 3.84699C8.69011 3.85635 8.69946 3.86104 8.70881 3.86104C8.71816 3.86104 8.72758 3.86104 8.73693 3.86104C8.74628 3.86104 8.75563 3.86104 8.76505 3.86104C8.7744 3.87041 8.77908 3.87509 8.77908 3.87509C8.78843 3.87509 8.79784 3.87509 8.80719 3.87509C8.81655 3.87509 8.82122 3.87509 8.82122 3.87509C8.83058 3.87509 8.83525 3.87509 8.83525 3.87509C8.84467 3.88446 8.84934 3.88914 8.84934 3.88914C8.85869 3.88914 8.86805 3.88914 8.87746 3.88914C8.88681 3.88914 8.89149 3.88914 8.89149 3.88914C8.90084 3.88914 8.90552 3.88914 8.90552 3.88914C8.91493 3.89851 8.92428 3.9032 8.93364 3.9032C8.94299 3.9032 8.94772 3.9032 8.94772 3.9032C8.95708 3.9032 8.96175 3.9032 8.96175 3.9032C8.97111 3.9032 8.97578 3.90788 8.97578 3.91724C8.98514 3.91724 8.99455 3.91724 9.0039 3.91724C9.01325 3.91724 9.01793 3.91724 9.01793 3.91724C9.02734 3.91724 9.03202 3.92193 9.03202 3.9313C9.04137 3.9313 9.04605 3.9313 9.04605 3.9313C9.06481 3.9313 9.07884 3.93598 9.08819 3.94535C9.09761 3.94535 9.10696 3.94535 9.11631 3.94535C9.11631 3.94535 9.12099 3.95003 9.13034 3.9594C9.13975 3.9594 9.14443 3.9594 9.14443 3.9594C9.15378 3.9594 9.15846 3.9594 9.15846 3.9594C9.16781 3.9594 9.17723 3.9594 9.18658 3.9594C9.43011 4.03434 9.65961 4.12802 9.87508 4.24043C10.0999 4.35284 10.3107 4.48399 10.5074 4.63388L11.3786 3.74863L12.2357 4.60577L11.3505 5.47697C11.5004 5.67369 11.6315 5.88446 11.7439 6.10929C11.8564 6.32474 11.9454 6.55425 12.0109 6.7978C12.039 6.89151 12.0625 6.98983 12.0812 7.09289C12.1093 7.18654 12.1327 7.28492 12.1514 7.38798H13.388V8.5964Z" fill="white"/></g></svg>